<svg width="196" height="243" viewBox="0 0 196 243" fill="none" xmlns="http://www.w3.org/2000/svg">
<path d="M72.7399 55.2686C73.3478 53.2409 76.6522 53.2409 77.2601 55.2686C80.6982 66.7365 88.0104 87.2807 98.8649 98.1351C109.719 108.99 130.263 116.302 141.731 119.74C143.759 120.348 143.759 123.652 141.731 124.26C130.263 127.698 109.719 135.01 98.8649 145.865C88.0104 156.719 80.6982 177.263 77.2601 188.731C76.6522 190.759 73.3478 190.759 72.7399 188.731C69.3018 177.263 61.9896 156.719 51.1351 145.865C40.2807 135.01 19.7365 127.698 8.26862 124.26C6.24093 123.652 6.24093 120.348 8.26862 119.74C19.7365 116.302 40.2807 108.99 51.1351 98.1351C61.9896 87.2807 69.3018 66.7365 72.7399 55.2686Z" fill="#3774E5"/>
<path d="M147.119 8.24001C147.782 6.22943 151.218 6.22943 151.881 8.24001C154.28 15.5235 158.463 25.8705 164.296 31.7038C170.13 37.5371 180.476 41.7203 187.76 44.1195C189.771 44.7818 189.771 48.2182 187.76 48.8805C180.476 51.2797 170.13 55.4629 164.296 61.2962C158.463 67.1295 154.28 77.4765 151.881 84.76C151.218 86.7706 147.782 86.7706 147.119 84.76C144.72 77.4765 140.537 67.1295 134.704 61.2962C128.87 55.4629 118.524 51.2797 111.24 48.8805C109.229 48.2182 109.229 44.7818 111.24 44.1195C118.524 41.7203 128.87 37.5371 134.704 31.7038C140.537 25.8705 144.72 15.5235 147.119 8.24001Z" fill="#3774E5"/>
<path d="M147.119 158.24C147.782 156.229 151.218 156.229 151.881 158.24C154.28 165.524 158.463 175.87 164.296 181.704C170.13 187.537 180.476 191.72 187.76 194.119C189.771 194.782 189.771 198.218 187.76 198.881C180.476 201.28 170.13 205.463 164.296 211.296C158.463 217.13 154.28 227.476 151.881 234.76C151.218 236.771 147.782 236.771 147.119 234.76C144.72 227.476 140.537 217.13 134.704 211.296C128.87 205.463 118.524 201.28 111.24 198.881C109.229 198.218 109.229 194.782 111.24 194.119C118.524 191.72 128.87 187.537 134.704 181.704C140.537 175.87 144.72 165.524 147.119 158.24Z" fill="#3774E5"/>
</svg>
