<svg width="243" height="243" viewBox="0 0 243 243" fill="none" xmlns="http://www.w3.org/2000/svg">
<path d="M182.25 60.7499C194.265 72.7652 202.448 88.0735 205.763 104.739C209.078 121.405 207.376 138.679 200.874 154.378C194.371 170.076 183.359 183.494 169.231 192.934C155.103 202.375 138.492 207.413 121.5 207.413C104.508 207.413 87.8974 202.375 73.769 192.934C59.6406 183.494 48.6289 170.076 42.1263 154.378C35.6237 138.679 33.9223 121.405 37.2373 104.739C40.5523 88.0735 48.7348 72.7652 60.75 60.7499L66.825 66.8249C56.0113 77.6386 48.6471 91.4161 45.6636 106.415C42.6801 121.414 44.2113 136.961 50.0637 151.09C55.916 165.219 65.8266 177.295 78.5421 185.791C91.2577 194.287 106.207 198.822 121.5 198.822C136.793 198.822 151.742 194.287 164.458 185.791C177.173 177.295 187.084 165.219 192.936 151.09C198.789 136.961 200.32 121.414 197.336 106.415C194.353 91.4161 186.989 77.6386 176.175 66.8249L182.25 60.7499Z" fill="#3774E5"/>
<path d="M182.25 60.7499C194.265 72.7652 202.448 88.0735 205.763 104.739C209.078 121.405 207.376 138.679 200.874 154.378C194.371 170.076 183.359 183.494 169.231 192.934C155.103 202.375 138.492 207.413 121.5 207.413C104.508 207.413 87.8974 202.375 73.769 192.934C59.6406 183.494 48.6289 170.076 42.1263 154.378C35.6237 138.679 33.9223 121.405 37.2373 104.739C40.5523 88.0735 48.7348 72.7652 60.75 60.7499C72.7652 48.7347 77.6387 56.0112 66.825 66.8249C56.0113 77.6386 48.6471 91.4161 45.6636 106.415C42.6801 121.414 44.2113 136.961 50.0637 151.09C55.916 165.219 65.8266 177.295 78.5421 185.791C91.2577 194.287 106.207 198.822 121.5 198.822C136.793 198.822 151.742 194.287 164.458 185.791C177.173 177.295 187.084 165.219 192.936 151.09C198.789 136.961 200.32 121.414 197.336 106.415C194.353 91.4161 186.989 77.6386 176.175 66.8249C165.361 56.0112 170.235 48.7347 182.25 60.7499Z" fill="#3774E5"/>
<path d="M165.889 77.1113C174.668 85.8905 180.647 97.076 183.069 109.253C185.491 121.43 184.248 134.052 179.497 145.523C174.745 156.994 166.699 166.798 156.376 173.695C146.053 180.593 133.916 184.275 121.5 184.275C109.084 184.275 96.9473 180.593 86.624 173.695C76.3007 166.798 68.2547 156.994 63.5034 145.523C58.7521 134.052 57.5089 121.43 59.9311 109.253C62.3533 97.076 68.3321 85.8905 77.1113 77.1113C85.8905 68.332 89.4515 73.6488 81.5502 81.5502C73.6488 89.4515 68.268 99.5184 66.088 110.478C63.908 121.437 65.0269 132.797 69.303 143.121C73.5792 153.444 80.8206 162.268 90.1116 168.476C99.4026 174.684 110.326 177.997 121.5 177.997C132.674 177.997 143.597 174.684 152.888 168.476C162.179 162.268 169.421 153.444 173.697 143.121C177.973 132.797 179.092 121.437 176.912 110.478C174.732 99.5184 169.351 89.4515 161.45 81.5502C153.548 73.6488 157.109 68.332 165.889 77.1113Z" fill="#3774E5"/>
<path d="M173.764 69.2359C184.101 79.5727 191.14 92.7427 193.992 107.08C196.844 121.418 195.381 136.279 189.786 149.785C184.192 163.291 174.718 174.834 162.564 182.956C150.409 191.078 136.119 195.412 121.5 195.412C106.882 195.412 92.5913 191.078 80.4364 182.956C68.2816 174.834 58.808 163.291 53.2138 149.785C47.6195 136.279 46.1558 121.418 49.0077 107.08C51.8596 92.7427 58.8991 79.5727 69.236 69.2359C79.5728 58.899 83.7655 65.1591 74.4624 74.4623C65.1592 83.7655 58.8237 95.6184 56.2569 108.522C53.6902 121.426 55.0075 134.801 60.0424 146.957C65.0772 159.112 73.6034 169.501 84.5428 176.81C95.4822 184.12 108.343 188.021 121.5 188.021C134.657 188.021 147.518 184.12 158.457 176.81C169.397 169.501 177.923 159.112 182.958 146.957C187.993 134.801 189.31 121.426 186.743 108.522C184.176 95.6184 177.841 83.7655 168.538 74.4623C159.234 65.1591 163.427 58.899 173.764 69.2359Z" fill="#3774E5"/>
<path d="M203.209 148.049C197.602 165.304 186.677 180.341 171.999 191.005C157.321 201.67 139.643 207.413 121.5 207.413C103.357 207.413 85.6794 201.67 71.0013 191.005C56.3232 180.341 45.398 165.304 39.7914 148.049L72.3152 137.481C75.6901 147.868 82.2666 156.92 91.1021 163.339C99.9377 169.758 110.579 173.216 121.5 173.216C132.421 173.216 143.062 169.758 151.898 163.339C160.733 156.92 167.31 147.868 170.685 137.481L203.209 148.049Z" fill="#3774E5"/>
<path d="M155.006 87.9944C148.379 81.3676 151.366 76.9079 158.729 84.2708C166.092 91.634 171.107 101.016 173.138 111.229C175.17 121.442 174.127 132.028 170.142 141.649C166.157 151.269 159.409 159.491 150.75 165.277C148.692 166.652 146.548 167.875 144.335 168.94C136.956 172.491 129.689 178.775 121.5 178.776V178.776V178.776C113.311 178.776 106.045 172.491 98.6661 168.94C96.4528 167.875 94.3081 166.652 92.2495 165.277C83.5913 159.491 76.8428 151.269 72.8579 141.649C68.8729 132.028 67.8303 121.442 69.8618 111.229C71.8933 101.016 76.9077 91.634 84.2709 84.2708C91.6341 76.9078 94.6205 81.3675 87.9936 87.9944C81.3669 94.6213 76.8542 103.064 75.0258 112.256C73.1975 121.448 74.1357 130.976 77.7221 139.634C81.3086 148.292 87.382 155.693 95.1743 160.9C96.4567 161.757 97.7763 162.548 99.1278 163.271C102.825 165.251 106.702 161.59 104.508 158.016V158.016C102.631 154.959 100.798 154.08 98.8442 151.096C87.7902 134.214 86.332 113.161 98.8442 97.8743C111.357 82.5871 131.643 82.5871 144.156 97.8743C156.668 113.161 155.21 134.214 144.156 151.096C142.202 154.08 140.369 154.958 138.492 158.016V158.016C136.298 161.59 140.174 165.251 143.872 163.271C145.223 162.548 146.543 161.757 147.826 160.9C155.618 155.693 161.691 148.292 165.278 139.634C168.864 130.976 169.802 121.448 167.974 112.256C166.146 103.064 161.633 94.6213 155.006 87.9944Z" fill="#3774E5"/>
<ellipse cx="108.108" cy="121.711" rx="5.01162" ry="7.15946" fill="white"/>
<path d="M111.097 122.849C111.097 125.221 109.815 127.145 108.233 127.145C106.651 127.145 105.369 125.221 105.369 122.849C105.369 120.477 106.651 118.553 108.233 118.553C109.815 118.553 111.097 120.477 111.097 122.849Z" fill="black"/>
<ellipse cx="135.314" cy="121.711" rx="5.01162" ry="7.15946" fill="white"/>
<path d="M138.013 122.907C138.013 125.28 136.731 127.203 135.149 127.203C133.568 127.203 132.285 125.28 132.285 122.907C132.285 120.535 133.568 118.612 135.149 118.612C136.731 118.612 138.013 120.535 138.013 122.907Z" fill="black"/>
<rect x="110.045" y="128.659" width="21.4784" height="7.15946" fill="#3774E5"/>
<rect x="93.3044" y="114.391" width="10.0435" height="12.913" fill="white"/>
<rect x="126.304" y="114.391" width="10.0435" height="12.913" fill="white"/>
<path d="M154.412 113.89C153.893 113.229 153.099 112.844 152.259 112.844C152.259 112.844 146.069 112.844 132.043 112.844H123.564H120.436H111.958C97.932 112.844 91.7418 112.844 91.7418 112.844C90.9014 112.844 90.1079 113.229 89.5872 113.89C89.068 114.55 88.88 115.413 89.0761 116.23C89.0761 116.23 90.6772 123.483 91.6448 126.869C92.6124 130.255 95.0305 133.156 102.768 133.156C110.506 133.156 110.48 133.156 112.414 133.156C115.154 133.156 118.377 130.579 119.507 127.352C120.148 125.527 121.152 123.132 122 121.181C122.849 123.132 123.852 125.527 124.493 127.352C125.624 130.579 128.846 133.156 131.586 133.156C133.52 133.156 133.495 133.156 141.232 133.156C148.97 133.156 151.388 130.255 152.356 126.869C153.322 123.483 154.923 116.23 154.923 116.23C155.121 115.413 154.933 114.55 154.412 113.89ZM100.645 125.931C94.8413 123.997 94.1973 115.614 94.1973 115.614C94.1973 115.614 97.0986 115.614 101.291 115.614L100.645 125.931ZM132.888 125.931C127.085 123.997 126.44 115.614 126.44 115.614C126.44 115.614 129.341 115.614 133.533 115.614L132.888 125.931Z" fill="black"/>
</svg>
